<?xml version="1.0" encoding="UTF-8" standalone="no"?>
<!-- Created with Inkscape (http://www.inkscape.org/) -->

<svg
   xmlns:dc="http://purl.org/dc/elements/1.1/"
   xmlns:cc="http://creativecommons.org/ns#"
   xmlns:rdf="http://www.w3.org/1999/02/22-rdf-syntax-ns#"
   xmlns:svg="http://www.w3.org/2000/svg"
   xmlns="http://www.w3.org/2000/svg"
   xmlns:sodipodi="http://sodipodi.sourceforge.net/DTD/sodipodi-0.dtd"
   xmlns:inkscape="http://www.inkscape.org/namespaces/inkscape"
   width="700"
   height="700"
   viewBox="0 0 700 699.99999"
   id="svg2"
   version="1.1"
   inkscape:version="0.91pre3 r13670"
   sodipodi:docname="repo_logo.svg"
   inkscape:export-filename="C:\Users\odeleon\Desktop\Desarrollo sistemas\shinyapps\ngram\app\www\img\repo_logo.png"
   inkscape:export-xdpi="116.04541"
   inkscape:export-ydpi="116.04541">
  <title
     id="title3336">n-gram logo</title>
  <defs
     id="defs4" />
  <sodipodi:namedview
     id="base"
     pagecolor="#ffffff"
     bordercolor="#666666"
     borderopacity="1.0"
     inkscape:pageopacity="0.0"
     inkscape:pageshadow="2"
     inkscape:zoom="0.56392722"
     inkscape:cx="-268.92839"
     inkscape:cy="445.12265"
     inkscape:document-units="px"
     inkscape:current-layer="layer1"
     showgrid="false"
     inkscape:window-width="1366"
     inkscape:window-height="706"
     inkscape:window-x="-8"
     inkscape:window-y="-8"
     inkscape:window-maximized="1"
     fit-margin-top="0"
     fit-margin-left="0"
     fit-margin-right="0"
     fit-margin-bottom="0"
     units="px" />
  <metadata
     id="metadata7">
    <rdf:RDF>
      <cc:Work
         rdf:about="">
        <dc:format>image/svg+xml</dc:format>
        <dc:type
           rdf:resource="http://purl.org/dc/dcmitype/StillImage" />
        <dc:title>n-gram logo</dc:title>
      </cc:Work>
    </rdf:RDF>
  </metadata>
  <g
     inkscape:label="Layer 1"
     inkscape:groupmode="layer"
     id="layer1"
     transform="translate(2133.1786,-577.92275)">
    <g
       id="g3360"
       transform="matrix(0.8650524,0,0,0.8650524,-2081.631,324.08895)">
      <path
         style="fill:#f2f2f2;fill-rule:evenodd;stroke:none;stroke-width:0.88725591px;stroke-linecap:butt;stroke-linejoin:miter;stroke-opacity:1"
         d="M 359.16016,39.542969 A 310.50012,310.50012 0 0 0 48.662109,350.04297 310.50012,310.50012 0 0 0 359.16016,660.54492 a 310.50012,310.50012 0 0 0 310.5,-310.50195 310.50012,310.50012 0 0 0 -310.5,-310.500001 z m 0,36.689453 A 273.81123,273.81123 0 0 1 632.97266,350.04297 273.81123,273.81123 0 0 1 359.16016,623.85547 273.81123,273.81123 0 0 1 85.349609,350.04297 273.81123,273.81123 0 0 1 359.16016,76.232422 Z"
         transform="matrix(1.0123734,0,0,1.0123734,-9.3199099,343.70077)"
         id="path4146"
         inkscape:connector-curvature="0" />
      <circle
         r="90"
         cy="962.36218"
         cx="294.75287"
         id="path3357-4"
         style="fill:#0000ff;fill-opacity:1;stroke:none" />
      <circle
         r="46"
         cy="522.02124"
         cx="116.15783"
         id="path3357-6"
         style="fill:#ff0000;fill-opacity:1;stroke:none" />
      <circle
         r="72"
         cy="872.47601"
         cx="599.95795"
         id="path3357-9"
         style="fill:#00ff00;fill-opacity:1;stroke:none" />
      <circle
         r="54"
         cy="397.70078"
         cx="354.28516"
         id="path3357-90"
         style="fill:#f2f2f2;fill-opacity:1;stroke:none" />
      <circle
         r="54"
         cy="569.10583"
         cx="617.66388"
         id="path3357-5"
         style="fill:#f2f2f2;fill-opacity:1;stroke:none" />
      <circle
         r="54"
         cy="788.28693"
         cx="72.063728"
         id="path3357-901"
         style="fill:#f2f2f2;fill-opacity:1;stroke:none" />
      <g
         style="font-style:normal;font-weight:normal;font-size:40px;line-height:125%;font-family:sans-serif;letter-spacing:0px;word-spacing:0px;fill:#000000;fill-opacity:1;stroke:none;stroke-width:1px;stroke-linecap:butt;stroke-linejoin:miter;stroke-opacity:1"
         id="g3442"
         transform="matrix(2.4541799,-1.0204928,0.78936353,1.8983379,1963.6887,-1374.112)">
        <path
           sodipodi:nodetypes="ccccccssccccccssscc"
           d="m -783.98871,725.07149 -29.25933,0.11383 -0.0483,-123.0656 c 0,-8.02083 -0.46875,-15.52083 -1.40625,-22.5 -0.9375,-7.08333 -2.65625,-12.60417 -5.15625,-16.5625 -2.60417,-4.375 -6.35417,-7.60417 -11.25,-9.6875 -4.89583,-2.1875 -11.25,-3.28125 -19.0625,-3.28125 -8.02083,0 -16.40625,1.97917 -25.15625,5.9375 -8.75,3.95833 -17.13542,9.01042 -25.15625,15.15625 l -0.16774,128.2603 -29.04311,-2.31871 0.12679,-177.02032 28.96534,-2.69659 0.11872,28.93157 c 9.16667,-7.60417 18.64583,-13.54167 28.4375,-17.8125 9.79167,-4.27083 19.84375,-6.40625 30.15625,-6.40625 18.85417,0 33.22917,5.67708 43.125,17.03125 9.89583,11.35417 14.84375,27.70833 14.84375,49.0625 z"
           style="font-size:320px"
           id="path3444"
           inkscape:connector-curvature="0" />
      </g>
    </g>
  </g>
</svg>
